<svg width="208" height="208" viewBox="0 0 208 208" fill="none" xmlns="http://www.w3.org/2000/svg">
<g filter="url(#filter0_d_303_4140)">
<g clip-path="url(#clip0_303_4140)">
<path d="M4 6.25C4 4.5924 4.65848 3.00269 5.83058 1.83058C7.00269 0.65848 8.5924 0 10.25 0L47.75 0C49.4076 0 50.9973 0.65848 52.1694 1.83058C53.3415 3.00269 54 4.5924 54 6.25C54 7.9076 53.3415 9.49732 52.1694 10.6694C50.9973 11.8415 49.4076 12.5 47.75 12.5H37.5C25.902 12.5 16.5 21.902 16.5 33.5V43.75C16.5 45.4076 15.8415 46.9973 14.6694 48.1694C13.4973 49.3415 11.9076 50 10.25 50C8.5924 50 7.00269 49.3415 5.83058 48.1694C4.65848 46.9973 4 45.4076 4 43.75V6.25ZM154 6.25C154 4.5924 154.658 3.00269 155.831 1.83058C157.003 0.65848 158.592 0 160.25 0L197.75 0C199.408 0 200.997 0.65848 202.169 1.83058C203.342 3.00269 204 4.5924 204 6.25V43.75C204 45.4076 203.342 46.9973 202.169 48.1694C200.997 49.3415 199.408 50 197.75 50C196.092 50 194.503 49.3415 193.331 48.1694C192.158 46.9973 191.5 45.4076 191.5 43.75V33.5C191.5 21.902 182.098 12.5 170.5 12.5H160.25C158.592 12.5 157.003 11.8415 155.831 10.6694C154.658 9.49732 154 7.9076 154 6.25ZM10.25 150C11.9076 150 13.4973 150.658 14.6694 151.831C15.8415 153.003 16.5 154.592 16.5 156.25V166.5C16.5 178.098 25.902 187.5 37.5 187.5H47.75C49.4076 187.5 50.9973 188.158 52.1694 189.331C53.3415 190.503 54 192.092 54 193.75C54 195.408 53.3415 196.997 52.1694 198.169C50.9973 199.342 49.4076 200 47.75 200H10.25C8.5924 200 7.00269 199.342 5.83058 198.169C4.65848 196.997 4 195.408 4 193.75V156.25C4 154.592 4.65848 153.003 5.83058 151.831C7.00269 150.658 8.5924 150 10.25 150ZM197.75 150C199.408 150 200.997 150.658 202.169 151.831C203.342 153.003 204 154.592 204 156.25V193.75C204 195.408 203.342 196.997 202.169 198.169C200.997 199.342 199.408 200 197.75 200H160.25C158.592 200 157.003 199.342 155.831 198.169C154.658 196.997 154 195.408 154 193.75C154 192.092 154.658 190.503 155.831 189.331C157.003 188.158 158.592 187.5 160.25 187.5H170.5C182.098 187.5 191.5 178.098 191.5 166.5V156.25C191.5 154.592 192.158 153.003 193.331 151.831C194.503 150.658 196.092 150 197.75 150ZM54 56.25C54 52.7982 56.7982 50 60.25 50C63.7018 50 66.5 52.7982 66.5 56.25C66.5 59.7018 63.7018 62.5 60.25 62.5C56.7982 62.5 54 59.7018 54 56.25Z" fill="#333333"/>
<path d="M91.5 25H29V87.5H91.5V25ZM41.5 37.5H79V75H41.5V37.5ZM66.5 137.5H54V150H66.5V137.5Z" fill="white"/>
<path d="M91.5 112.5H29V175H91.5V112.5ZM41.5 125H79V162.5H41.5V125ZM141.5 50H154V62.5H141.5V50Z" fill="white"/>
<path d="M116.5 25H179V87.5H116.5V25ZM129 37.5V75H166.5V37.5H129ZM104 100V125H116.5V137.5H104V150H129V125H141.5V150H154V137.5H179V125H141.5V100H104ZM129 125H116.5V112.5H129V125ZM179 150H166.5V162.5H141.5V175H179V150ZM129 175V162.5H104V175H129Z" fill="white"/>
<path d="M154 112.5H179V100H154V112.5Z" fill="white"/>
<circle cx="60.1109" cy="56.1109" r="7.22222" fill="white"/>
<path d="M7.88867 100L201.778 98.3335" stroke="#333333" stroke-width="7" stroke-linecap="round" stroke-linejoin="round"/>
</g>
</g>
<defs>
<filter id="filter0_d_303_4140" x="0" y="0" width="208" height="208" filterUnits="userSpaceOnUse" color-interpolation-filters="sRGB">
<feFlood flood-opacity="0" result="BackgroundImageFix"/>
<feColorMatrix in="SourceAlpha" type="matrix" values="0 0 0 0 0 0 0 0 0 0 0 0 0 0 0 0 0 0 127 0" result="hardAlpha"/>
<feOffset dy="4"/>
<feGaussianBlur stdDeviation="2"/>
<feComposite in2="hardAlpha" operator="out"/>
<feColorMatrix type="matrix" values="0 0 0 0 0 0 0 0 0 0 0 0 0 0 0 0 0 0 0.25 0"/>
<feBlend mode="normal" in2="BackgroundImageFix" result="effect1_dropShadow_303_4140"/>
<feBlend mode="normal" in="SourceGraphic" in2="effect1_dropShadow_303_4140" result="shape"/>
</filter>
<clipPath id="clip0_303_4140">
<rect width="200" height="200" fill="white" transform="translate(4)"/>
</clipPath>
</defs>
</svg>
