<svg width="200" height="200" viewBox="0 0 200 200" fill="none" xmlns="http://www.w3.org/2000/svg">
<path d="M6.25 150.5C7.775 150.5 9.2371 151.106 10.3154 152.185C11.3938 153.263 12 154.725 12 156.25V166.5C12 178.374 21.6259 188 33.5 188H43.75C45.275 188 46.7371 188.606 47.8154 189.685C48.8938 190.763 49.5 192.225 49.5 193.75C49.5 195.275 48.8938 196.737 47.8154 197.815C46.7371 198.894 45.275 199.5 43.75 199.5H6.25C4.725 199.5 3.2629 198.894 2.18457 197.815C1.10624 196.737 0.5 195.275 0.5 193.75V156.25C0.5 154.725 1.10624 153.263 2.18457 152.185C3.2629 151.106 4.725 150.5 6.25 150.5ZM193.75 150.5C195.275 150.5 196.737 151.106 197.815 152.185C198.894 153.263 199.5 154.725 199.5 156.25V193.75C199.5 195.275 198.894 196.737 197.815 197.815C196.737 198.894 195.275 199.5 193.75 199.5H156.25C154.725 199.5 153.263 198.894 152.185 197.815C151.106 196.737 150.5 195.275 150.5 193.75C150.5 192.225 151.106 190.763 152.185 189.685C153.263 188.606 154.725 188 156.25 188H166.5C178.374 188 188 178.374 188 166.5V156.25C188 154.725 188.606 153.263 189.685 152.185C190.763 151.106 192.225 150.5 193.75 150.5ZM6.25 0.5H43.75C45.275 0.5 46.7371 1.10624 47.8154 2.18457C48.8938 3.2629 49.5 4.72501 49.5 6.25C49.5 7.77499 48.8938 9.2371 47.8154 10.3154C46.7371 11.3938 45.275 12 43.75 12H33.5C21.6259 12 12 21.6259 12 33.5V43.75C12 45.275 11.3938 46.7371 10.3154 47.8154C9.2371 48.8938 7.77499 49.5 6.25 49.5C4.72501 49.5 3.2629 48.8938 2.18457 47.8154C1.10624 46.7371 0.5 45.275 0.5 43.75V6.25L0.506836 5.96484C0.577345 4.54367 1.17364 3.1955 2.18457 2.18457C3.2629 1.10624 4.72501 0.5 6.25 0.5ZM156.25 0.5H193.75C195.275 0.5 196.737 1.10624 197.815 2.18457C198.894 3.2629 199.5 4.725 199.5 6.25V43.75C199.5 45.275 198.894 46.7371 197.815 47.8154C196.737 48.8938 195.275 49.5 193.75 49.5C192.225 49.5 190.763 48.8938 189.685 47.8154C188.606 46.7371 188 45.275 188 43.75V33.5C188 21.6259 178.374 12 166.5 12H156.25C154.725 12 153.263 11.3938 152.185 10.3154C151.106 9.2371 150.5 7.775 150.5 6.25C150.5 4.725 151.106 3.2629 152.185 2.18457C153.263 1.10624 154.725 0.5 156.25 0.5Z" fill="#FDB623" stroke="black"/>
</svg>
