<svg width="200" height="200" viewBox="0 0 200 200" fill="none" xmlns="http://www.w3.org/2000/svg">
<g clip-path="url(#clip0_303_3506)">
<path d="M87.5 25H25V87.5H87.5V25ZM37.5 37.5H75V75H37.5V37.5ZM62.5 137.5H50V150H62.5V137.5Z" fill="white"/>
<path d="M87.5 112.5H25V175H87.5V112.5ZM37.5 125H75V162.5H37.5V125ZM137.5 50H150V62.5H137.5V50Z" fill="white"/>
<path d="M112.5 25H175V87.5H112.5V25ZM125 37.5V75H162.5V37.5H125ZM100 100V125H112.5V137.5H100V150H125V125H137.5V150H150V137.5H175V125H137.5V100H100ZM125 125H112.5V112.5H125V125ZM175 150H162.5V162.5H137.5V175H175V150ZM125 175V162.5H100V175H125Z" fill="white"/>
<path d="M150 112.5H175V100H150V112.5Z" fill="white"/>
<circle cx="56.1109" cy="56.1109" r="7.22222" fill="white"/>
</g>
<defs>
<clipPath id="clip0_303_3506">
<rect width="200" height="200" fill="white"/>
</clipPath>
</defs>
</svg>
