<svg width="25" height="25" viewBox="0 0 25 25" fill="none" xmlns="http://www.w3.org/2000/svg">
<path d="M16.9268 10.9375L14.3226 13.5417L15.4163 14.6354L16.0934 13.9583C15.9893 14.8785 15.5986 15.6469 14.9215 16.2635C14.2445 16.8795 13.4372 17.1875 12.4997 17.1875C12.2566 17.1875 12.0309 17.166 11.8226 17.1229C11.6143 17.0792 11.4059 17.0139 11.1976 16.9271L10.0518 18.0729C10.4163 18.2812 10.8028 18.4462 11.2111 18.5677C11.6188 18.6892 12.0483 18.75 12.4997 18.75C13.8886 18.75 15.0733 18.2812 16.0538 17.3437C17.0351 16.4062 17.5691 15.2604 17.6559 13.9062L18.4372 14.6354L19.5309 13.5417L16.9268 10.9375ZM8.07259 16.1458L10.6768 13.5417L9.58301 12.4479L8.90593 13.125C9.01009 12.2049 9.40072 11.4365 10.0778 10.8198C10.7549 10.2038 11.5622 9.89583 12.4997 9.89583C12.7427 9.89583 12.9684 9.91736 13.1768 9.96042C13.3851 10.0042 13.5934 10.0694 13.8018 10.1562L14.9476 9.01042C14.583 8.80208 14.1969 8.63715 13.7893 8.51562C13.3809 8.3941 12.9511 8.33333 12.4997 8.33333C11.1108 8.33333 9.92606 8.80208 8.94551 9.73958C7.96426 10.6771 7.43023 11.8229 7.34343 13.1771L6.56217 12.4479L5.46842 13.5417L8.07259 16.1458ZM4.16634 21.875C3.59342 21.875 3.10315 21.6712 2.69551 21.2635C2.28717 20.8552 2.08301 20.3646 2.08301 19.7917V7.29167C2.08301 6.71875 2.28717 6.22847 2.69551 5.82083C3.10315 5.4125 3.59342 5.20833 4.16634 5.20833H7.44759L9.37467 3.125H15.6247L17.5518 5.20833H20.833C21.4059 5.20833 21.8966 5.4125 22.3049 5.82083C22.7125 6.22847 22.9163 6.71875 22.9163 7.29167V19.7917C22.9163 20.3646 22.7125 20.8552 22.3049 21.2635C21.8966 21.6712 21.4059 21.875 20.833 21.875H4.16634Z" fill="#D9D9D9"/>
</svg>
